<?xml version="1.0" standalone="no"?>
<!DOCTYPE svg PUBLIC "-//W3C//DTD SVG 20010904//EN"
 "http://www.w3.org/TR/2001/REC-SVG-20010904/DTD/svg10.dtd">
<svg version="1.0" xmlns="http://www.w3.org/2000/svg"
 width="700.000000pt" height="700.000000pt" viewBox="0 0 700.000000 700.000000"
 preserveAspectRatio="xMidYMid meet">
<metadata>
Created by potrace 1.14, written by Peter Selinger 2001-2017
</metadata>
<g transform="translate(0.000000,700.000000) scale(0.100000,-0.100000)"
fill="#000000" stroke="none">
<path d="M1483 4425 c518 -613 1183 -1400 1477 -1750 294 -349 537 -635 540
-635 3 0 247 287 542 638 296 350 961 1138 1478 1750 690 817 934 1112 919
1112 -13 0 -498 -477 -1480 -1457 l-1459 -1457 -1459 1457 c-1037 1036 -1464
1457 -1479 1457 -17 0 195 -257 921 -1115z"/>
<path d="M295 1515 c3 -85 11 -174 20 -205 54 -201 225 -367 428 -415 94 -22
5420 -22 5515 0 202 48 373 213 428 415 8 31 16 120 19 205 5 144 4 148 -10
100 -45 -155 -145 -288 -276 -367 -133 -80 162 -73 -2889 -76 -2020 -2 -2739
0 -2780 8 -204 43 -377 209 -442 425 l-18 60 5 -150z"/>
</g>
</svg>
